HIERARCHY
ROOT Hips
{
	OFFSET 0.00000 0.00000 0.00000
	CHANNELS 6 Xposition Yposition Zposition Zrotation Yrotation Xrotation 
	JOINT LHipJoint
	{
		OFFSET 0 0 0
		CHANNELS 3 Zrotation Yrotation Xrotation
		JOINT LeftHip
		{
			OFFSET 1.64549 -1.70879 0.84566
			CHANNELS 3 Zrotation Yrotation Xrotation
			JOINT LeftKnee
			{
				OFFSET 2.24963 -6.18082 0.00000
				CHANNELS 3 Zrotation Yrotation Xrotation
				JOINT LeftAnkle
				{
					OFFSET 2.71775 -7.46697 0.00000
					CHANNELS 3 Zrotation Yrotation Xrotation
					JOINT LeftToe
					{
						OFFSET 0.18768 -0.51564 2.24737
						CHANNELS 3 Zrotation Yrotation Xrotation
						End Site
						{
							OFFSET 0.00000 -0.00000 1.15935
						}
					}
				}
			}
		}
	}
	JOINT RHipJoint
	{
		OFFSET 0 0 0
		CHANNELS 3 Zrotation Yrotation Xrotation
		JOINT RightHip
		{
			OFFSET -1.58830 -1.70879 0.84566
			CHANNELS 3 Zrotation Yrotation Xrotation
			JOINT RightKnee
			{
				OFFSET -2.25006 -6.18201 0.00000
				CHANNELS 3 Zrotation Yrotation Xrotation
				JOINT RightAnkle
				{
					OFFSET -2.72829 -7.49593 0.00000
					CHANNELS 3 Zrotation Yrotation Xrotation
					JOINT RightToe
					{
						OFFSET -0.21541 -0.59185 2.10643
						CHANNELS 3 Zrotation Yrotation Xrotation
						End Site
						{
							OFFSET -0.00000 -0.00000 1.09838
						}
					}
				}
			}
		}
	}
	JOINT lowerback
	{
		OFFSET 0 0 0
		CHANNELS 3 Zrotation Yrotation Xrotation
		JOINT Chest
		{
			OFFSET 0.03142 2.10496 -0.11038
			CHANNELS 3 Zrotation Yrotation Xrotation
			JOINT Chest2
			{
				OFFSET -0.01863 2.10897 -0.06956
				CHANNELS 3 Zrotation Yrotation Xrotation
				JOINT lowerneck
				{
					OFFSET 0 0 0
					CHANNELS 3 Zrotation Yrotation Xrotation
					JOINT Neck
					{
						OFFSET -0.02267 1.73238 0.00451
						CHANNELS 3 Zrotation Yrotation Xrotation
						JOINT Head
						{
							OFFSET -0.05808 1.54724 -0.61749
							CHANNELS 3 Zrotation Yrotation Xrotation
							End Site
							{
								OFFSET -0.01396 1.71468 -0.21082
							}
						}
					}
				}
				JOINT LeftCollar
				{
					OFFSET 0 0 0
					CHANNELS 3 Zrotation Yrotation Xrotation
					JOINT LeftShoulder
					{
						OFFSET 3.44898 0.50298 0.21920
CHANNELS 3 Zrotation Xrotation Yrotation
						JOINT LeftElbow
						{
OFFSET 0 -5.419170 -0.000000
CHANNELS 3 Zrotation Xrotation Yrotation
							JOINT LeftWrist
							{
OFFSET 0 -2.443730 0.000000
CHANNELS 3 Zrotation Xrotation Yrotation
								JOINT lhand
								{
									OFFSET 0 0 0
CHANNELS 3 Zrotation Xrotation Yrotation
									JOINT LFingers
									{
OFFSET 0 -0.727500 0.000000
CHANNELS 3 Zrotation Xrotation Yrotation
										End Site
										{
OFFSET 0 -0.586530 0.000000
										}
									}
								}
								JOINT LThumb
								{
OFFSET 0 0.000000 0.000000
CHANNELS 3 Zrotation Xrotation Yrotation
									End Site
									{
OFFSET 0 -0.595490 0.595490
									}
								}
							}
						}
					}
				}
				JOINT RightCollar
				{
					OFFSET 0 0 0
					CHANNELS 3 Zrotation Yrotation Xrotation
					JOINT RightShoulder
					{
						OFFSET -3.23015 0.55830 0.31051
CHANNELS 3 Zrotation Xrotation Yrotation
						JOINT RightElbow
						{
OFFSET 0 -5.589760 0.000140
CHANNELS 3 Zrotation Xrotation Yrotation
							JOINT RightWrist
							{
OFFSET 0 -2.480600 0.000000
CHANNELS 3 Zrotation Xrotation Yrotation
								JOINT rhand
								{
									OFFSET 0 0 0
CHANNELS 3 Zrotation Xrotation Yrotation
									JOINT RFingers
									{
OFFSET 0 -0.816010 0.000000
CHANNELS 3 Zrotation Xrotation Yrotation
										End Site
										{
OFFSET 0 -0.657890 0.000000
										}
									}
								}
								JOINT RThumb
								{
OFFSET 0 0.000000 0.000000
CHANNELS 3 Zrotation Xrotation Yrotation
									End Site
									{
OFFSET 0 -0.667930 0.667930
									}
								}
							}
						}
					}
				}
			}
		}
	}
}
MOTION
Frames: 7
Frame Time: 0.008333333333333333
0.657317 16.854682 6.693306 -0.254356 -3.649333 9.250627 0.000000 0.000000 0.000000 -24.380966 -16.786712 -13.138481 2.720419 10.228104 29.718668 1.728259 10.460991 -30.499087 0.074112 1.756042 4.831957 0.000000 0.000000 0.000000 19.557188 12.399894 -32.136860 -7.442585 -15.693477 50.528930 0.170483 -15.351121 -19.929782 -0.250674 3.221652 -8.896362 0.298287 1.491318 -3.732164 -1.236248 1.963084 -4.292790 -1.402800 0.955035 -2.265531 -0.754118 -0.129639 -15.288008 0.877557 -0.283598 41.889903 0.495361 -0.113665 18.278847 0.000000 0.000000 0.000000 9.029858 2.018864 0.319493 30.457011 -41.281843 11.709916 1.935912 2.117634 -15.946235 0.000000 0.000000 0.000000 -7.125000 0.000000 0.000000 -23.606971 44.542105 -0.283175 0.000000 0.000000 0.000000 -3.219272 12.677241 10.339423 -14.071672 -22.837074 -2.855912 -3.313830 -10.693718 -13.059798 0.000000 0.000000 0.000000 7.125000 0.000000 0.000000 16.452124 17.205036 11.329121
0.658892 16.875993 6.809118 -0.364049 -3.586717 9.363830 0.000000 0.000000 0.000000 -24.374532 -17.167483 -12.335933 2.627069 10.065318 29.188465 1.882127 10.082005 -31.194605 0.178873 2.723437 7.509740 0.000000 0.000000 0.000000 19.417901 12.827653 -32.475697 -6.888186 -15.236895 48.449849 0.076473 -15.429510 -21.098723 -0.192492 2.825392 -7.793047 0.438892 1.472794 -3.861348 -1.125754 1.938524 -4.139273 -1.361804 0.942563 -2.034464 -0.700371 -0.092089 -15.389090 0.808547 -0.213354 41.734482 0.465848 -0.085442 18.211439 0.000000 0.000000 0.000000 9.131588 1.462001 -0.147057 30.918283 -41.667562 12.015465 2.040972 2.044268 -15.510990 0.000000 0.000000 0.000000 -7.125000 0.000000 0.000000 -23.343028 44.155047 -0.516327 0.000000 0.000000 0.000000 -3.302084 12.402783 10.235621 -14.139659 -22.934014 -2.882367 -3.576680 -11.347515 -12.827269 0.000000 0.000000 0.000000 7.125000 0.000000 0.000000 16.294093 17.419621 11.130299
0.657908 16.884529 6.928797 -0.304903 -3.503994 9.511660 0.000000 0.000000 0.000000 -24.619736 -17.132015 -11.496631 2.495008 9.828784 28.423913 1.945473 10.000966 -31.527130 0.192589 2.826176 7.795210 0.000000 0.000000 0.000000 19.068634 13.102802 -32.868607 -6.341578 -14.751268 46.337493 -0.024256 -15.414827 -22.123523 -0.132800 2.348696 -6.470387 0.399141 1.451082 -3.919119 -1.086823 1.910435 -4.225765 -1.300217 0.929509 -2.094782 -0.541634 -0.046681 -15.137026 0.666394 -0.138428 41.690563 0.384087 -0.049204 18.115306 0.000000 0.000000 0.000000 9.241380 1.312237 -0.465440 31.294056 -41.977111 12.266103 1.948880 2.165675 -15.845466 0.000000 0.000000 0.000000 -7.125000 0.000000 0.000000 -23.555302 44.451290 -0.338606 0.000000 0.000000 0.000000 -3.305872 12.635827 10.149917 -14.248685 -23.089099 -2.924943 -3.820955 -11.888077 -12.549330 0.000000 0.000000 0.000000 7.125000 0.000000 0.000000 16.151593 17.678728 10.928292
0.638628 16.879362 7.046223 -0.251426 -3.748105 9.737643 0.000000 0.000000 0.000000 -24.814422 -16.455891 -10.874276 2.342688 9.546119 27.519123 1.888579 10.368743 -31.433836 0.080329 1.824652 5.021425 0.000000 0.000000 0.000000 18.702989 14.137394 -33.225618 -5.793922 -14.225370 44.148376 0.050605 -16.190625 -22.469313 -0.147520 2.475059 -6.820529 0.089062 1.510298 -3.788055 -0.981739 1.994404 -4.597908 -1.028507 0.978519 -2.565046 -0.584478 -0.048079 -14.537267 0.709279 -0.148078 41.676364 0.408898 -0.053940 17.944905 0.000000 0.000000 0.000000 9.367124 1.675688 -0.959885 31.743918 -42.342016 12.567956 2.037147 2.107401 -16.477362 0.000000 0.000000 0.000000 -7.125000 0.000000 0.000000 -23.735787 45.040068 0.024919 0.000000 0.000000 0.000000 -3.290186 13.345433 9.692994 -14.463768 -23.393812 -3.009801 -3.780305 -11.845062 -11.825630 0.000000 0.000000 0.000000 7.125000 0.000000 0.000000 16.237965 18.376278 10.730024
0.637120 16.888460 7.163729 -0.069466 -3.602958 9.839881 0.000000 0.000000 0.000000 -25.213546 -16.119411 -9.880942 2.168923 9.209189 26.452114 1.844069 10.565663 -31.298940 0.050337 1.447571 3.981365 0.000000 0.000000 0.000000 18.167306 14.457996 -33.513867 -5.241824 -13.650672 41.856470 0.075238 -16.537154 -22.725257 -0.182174 2.749143 -7.581162 -0.002558 1.452788 -4.153403 -0.984046 1.923300 -4.274500 -0.964133 0.947975 -2.030341 -0.565497 -0.084052 -15.051350 0.768898 -0.237340 41.573664 0.416784 -0.077442 18.023668 0.000000 0.000000 0.000000 9.513391 0.970326 -1.319208 32.271532 -42.762550 12.924811 1.905524 1.850410 -16.740795 0.000000 0.000000 0.000000 -7.125000 0.000000 0.000000 -23.959519 45.265073 0.166506 0.000000 0.000000 0.000000 -3.269217 12.592414 8.773248 -14.293535 -23.152732 -2.942541 -3.501151 -11.357725 -11.971840 0.000000 0.000000 0.000000 7.125000 0.000000 0.000000 16.414917 18.244043 10.907753
0.626498 16.908724 7.281431 -0.246732 -3.642518 10.024082 0.000000 0.000000 0.000000 -25.119768 -15.933583 -8.974574 2.004723 8.875645 25.407245 1.845363 10.637216 -31.357761 0.104773 2.085757 5.742761 0.000000 0.000000 0.000000 17.980346 15.260770 -33.603995 -4.673477 -13.005802 39.391173 0.046838 -16.612978 -23.110466 -0.257501 3.264045 -9.014796 0.091613 1.484883 -4.215150 -0.887016 1.965196 -4.280789 -0.914609 0.968114 -2.001878 -0.372996 -0.093631 -15.207331 0.678312 -0.283757 41.552271 0.330909 -0.077407 18.053073 0.000000 0.000000 0.000000 9.638010 0.913167 -1.783024 32.969885 -43.306738 13.401385 1.898690 1.697684 -16.799083 0.000000 0.000000 0.000000 -7.125000 0.000000 0.000000 -23.989895 45.317482 0.199718 0.000000 0.000000 0.000000 -3.254274 12.404302 8.215572 -14.068461 -22.832521 -2.854625 -3.404823 -11.077896 -12.459914 0.000000 0.000000 0.000000 7.125000 0.000000 0.000000 16.439392 17.778175 11.102606
0.616028 16.926807 7.399920 -0.338929 -3.610723 10.254367 0.000000 0.000000 0.000000 -25.098530 -15.757335 -8.164403 1.864347 8.577478 24.482390 1.867118 10.552801 -31.431294 0.163128 2.600743 7.169095 0.000000 0.000000 0.000000 17.642520 16.065479 -33.601785 -4.096175 -12.286493 36.754191 -0.010441 -16.610974 -23.650283 -0.330609 3.695148 -10.220542 0.039300 1.421030 -4.323617 -0.732879 1.882453 -4.486345 -0.729976 0.929564 -2.161941 -0.198100 -0.033830 -14.711266 0.501191 -0.179237 41.464734 0.235286 -0.033083 17.866256 0.000000 0.000000 0.000000 9.711716 1.274563 -2.180962 33.631509 -43.809666 13.857380 1.954656 1.348681 -17.294140 0.000000 0.000000 0.000000 -7.125000 0.000000 0.000000 -24.151526 45.776047 0.491441 0.000000 0.000000 0.000000 -3.412973 12.679130 8.092505 -13.916675 -22.615483 -2.795965 -3.508854 -10.895435 -12.327832 0.000000 0.000000 0.000000 7.125000 0.000000 0.000000 16.380026 17.901766 11.012186
